HIERARCHY
ROOT Hips
{
	OFFSET -0.001795 -0.223333 0.028219
	CHANNELS 6 Xposition Yposition Zposition Zrotation Yrotation Xrotation 
	JOINT LeftUpLeg
	{
		OFFSET 0.069520 -0.091406 -0.006815
		CHANNELS 3 Zrotation Yrotation Xrotation
		JOINT LeftLeg
		{
			OFFSET 0.034277 -0.375199 -0.004496
			CHANNELS 3 Zrotation Yrotation Xrotation
			JOINT LeftFoot
			{
				OFFSET -0.013596 -0.397961 -0.043693
				CHANNELS 3 Zrotation Yrotation Xrotation
				JOINT LeftToe
				{
					OFFSET 0.026358 -0.055791 0.119288
					CHANNELS 3 Zrotation Yrotation Xrotation
					End Site
					{
						OFFSET 0.000000 0.000000 0.000000
					}
				}
			}
		}
	}
	JOINT RightUpLeg
	{
		OFFSET -0.067670 -0.090522 -0.004320
		CHANNELS 3 Zrotation Yrotation Xrotation
		JOINT RightLeg
		{
			OFFSET -0.038290 -0.382569 -0.008850
			CHANNELS 3 Zrotation Yrotation Xrotation
			JOINT RightFoot
			{
				OFFSET 0.015774 -0.398415 -0.042312
				CHANNELS 3 Zrotation Yrotation Xrotation
				JOINT RightToe
				{
					OFFSET -0.025372 -0.048144 0.123348
					CHANNELS 3 Zrotation Yrotation Xrotation
					End Site
					{
						OFFSET 0.000000 0.000000 0.000000
					}
				}
			}
		}
	}
	JOINT Spine
	{
		OFFSET -0.002533 0.108963 -0.026696
		CHANNELS 3 Zrotation Yrotation Xrotation
		JOINT Spine1
		{
			OFFSET 0.005487 0.135180 0.001092
			CHANNELS 3 Zrotation Yrotation Xrotation
			JOINT Spine2
			{
				OFFSET 0.001457 0.052922 0.025425
				CHANNELS 3 Zrotation Yrotation Xrotation
				JOINT Neck
				{
					OFFSET -0.002778 0.213870 -0.042857
					CHANNELS 3 Zrotation Yrotation Xrotation
					JOINT Head
					{
						OFFSET 0.005152 0.064970 0.051349
						CHANNELS 3 Zrotation Yrotation Xrotation
						End Site
						{
							OFFSET 0.000000 0.000000 0.000000
						}
					}
				}
				JOINT LeftShoulder
				{
					OFFSET 0.078845 0.121749 -0.034090
					CHANNELS 3 Zrotation Yrotation Xrotation
					JOINT LeftArm
					{
						OFFSET 0.090977 0.030469 -0.008868
						CHANNELS 3 Zrotation Yrotation Xrotation
						JOINT LeftForeArm
						{
							OFFSET 0.259612 -0.012772 -0.027456
							CHANNELS 3 Zrotation Yrotation Xrotation
							JOINT LeftHand
							{
								OFFSET 0.249234 0.008986 -0.001171
								CHANNELS 3 Zrotation Yrotation Xrotation
								End Site
								{
									OFFSET 0.000000 0.000000 0.000000
								}
							}
						}
					}
				}
				JOINT RightShoulder
				{
					OFFSET -0.081759 0.118833 -0.038615
					CHANNELS 3 Zrotation Yrotation Xrotation
					JOINT RightArm
					{
						OFFSET -0.096012 0.032551 -0.009143
						CHANNELS 3 Zrotation Yrotation Xrotation
						JOINT RightForeArm
						{
							OFFSET -0.253742 -0.013329 -0.021401
							CHANNELS 3 Zrotation Yrotation Xrotation
							JOINT RightHand
							{
								OFFSET -0.255298 0.007772 -0.005559
								CHANNELS 3 Zrotation Yrotation Xrotation
								End Site
								{
									OFFSET 0.000000 0.000000 0.000000
								}
							}
						}
					}
				}
			}
		}
	}
}
MOTION
Frames: 7
Frame Time: 0.050000
0.000000 1.145373 0.000000 1.201522 -1.993607 -6.160098 0.058293 0.226250 2.394048 0.309964 0.794138 -20.709708 22.404272 23.278070 105.225210 0.000000 0.000000 0.000000 -0.941850 0.161300 -1.663987 -2.382389 -0.791579 -18.670748 -29.544544 -23.691570 111.299728 0.000000 0.000000 0.000000 -2.865823 -0.187766 11.443359 4.470397 1.064325 -46.144096 -2.059120 1.229011 46.771739 3.625192 3.068722 -76.415537 0.000000 0.000000 0.000000 4.565180 -2.238548 0.541029 -26.562776 -15.853172 -2.676172 -23.216978 29.037376 -7.094616 0.000000 0.000000 0.000000 -7.079465 5.970911 1.583259 38.248459 16.259206 -2.446890 6.572294 -26.627105 -2.068809 0.000000 0.000000 0.000000 
-0.011139 1.124350 0.009863 0.900131 -3.606953 -6.219144 2.431328 0.442186 5.385428 -0.404561 1.010847 -25.196476 26.151601 24.131165 107.746392 0.000000 0.000000 0.000000 -1.315739 0.015973 0.066067 -1.427303 -0.747318 -20.416007 -38.152814 -23.373304 116.887621 0.000000 0.000000 0.000000 -3.774778 -0.089229 8.652808 8.094209 1.324420 -48.584472 -2.292359 2.653109 51.915131 1.657737 3.402870 -79.467119 0.000000 0.000000 0.000000 7.480761 -0.758254 -0.146533 -20.288257 -10.017027 -3.129119 -20.352428 29.399995 -6.633957 0.000000 0.000000 0.000000 -13.274363 6.001743 0.924771 31.776691 13.495768 -3.063216 4.679600 -25.593391 -1.572931 0.000000 0.000000 0.000000 
-0.021244 1.095338 0.023799 1.592954 -3.580186 -6.918843 3.146909 0.746414 9.742196 -0.743662 1.209561 -30.431840 27.924075 24.195026 109.542572 0.000000 0.000000 0.000000 -3.501958 -0.265117 4.930617 1.438388 -0.564269 -26.026123 -47.030932 -24.715916 117.352567 0.000000 0.000000 0.000000 -3.850906 -0.095020 6.775058 7.134327 1.013330 -45.585847 -2.962236 1.792497 51.605886 0.974308 3.541994 -79.351470 0.000000 0.000000 0.000000 9.194849 2.285176 -1.239853 -11.180161 -4.685672 -2.216418 -16.207792 23.848800 -4.593613 0.000000 0.000000 0.000000 -17.366388 4.966644 0.488050 23.479367 10.834261 -2.927044 -1.441678 -18.077015 -0.139834 0.000000 0.000000 0.000000 
-0.029992 1.086437 0.033030 1.304183 -4.327052 -8.612930 5.095246 0.865133 13.063157 -1.258835 1.340327 -34.029786 28.546179 24.490633 109.065979 0.000000 0.000000 0.000000 -3.826385 -0.452140 8.617296 3.064206 -0.268350 -28.467233 -54.809307 -25.625490 117.744582 0.000000 0.000000 0.000000 -3.324389 -0.136793 6.751349 4.328439 1.145734 -44.882803 0.062388 0.916672 52.355601 -0.052055 3.686859 -79.685741 0.000000 0.000000 0.000000 13.599847 1.310676 -1.396604 -3.981869 0.159477 -0.836307 -10.402466 25.192601 -3.489008 0.000000 0.000000 0.000000 -20.656981 2.560725 -0.030531 14.595455 7.371021 -2.242953 -6.417606 -18.161017 0.617040 0.000000 0.000000 0.000000 
-0.037227 1.117918 0.031297 0.799956 -6.352636 -7.814051 5.997863 0.807191 12.275479 0.453732 1.655462 -31.436331 14.401163 22.855381 103.782157 0.000000 0.000000 0.000000 -5.772915 -0.143451 6.660330 5.780146 0.156735 -24.666323 -43.207808 -23.078084 117.394108 0.000000 0.000000 0.000000 -3.860732 -0.092047 6.267552 7.943240 0.930215 -43.586959 -1.650994 2.995487 49.492215 0.200097 3.493481 -75.071651 0.000000 0.000000 0.000000 21.564609 7.736000 -2.838686 -0.040344 0.462271 0.010701 -0.323305 24.765806 -1.025026 0.000000 0.000000 0.000000 -27.019819 0.549457 -0.494197 10.339139 5.632254 -1.609431 -13.273363 -18.510367 1.819302 0.000000 0.000000 0.000000 
-0.042795 1.172081 0.021866 1.740021 -4.606407 -7.743074 6.554582 0.480906 7.796484 -0.518362 1.026776 -24.869200 7.745846 21.056192 102.729387 0.000000 0.000000 0.000000 -8.012359 0.090530 1.324188 -0.310080 -0.477981 -14.833193 -8.631301 -18.142144 114.201752 0.000000 0.000000 0.000000 -4.836573 -0.060406 6.627454 5.772705 0.741433 -41.487780 1.032844 0.267998 46.375760 -5.864736 4.311609 -71.532296 0.000000 0.000000 0.000000 25.497699 4.017404 -2.287951 4.643104 7.059786 1.540128 7.728489 24.394661 0.862683 0.000000 0.000000 0.000000 -38.354590 -1.998391 -0.405939 10.152922 2.007451 -1.529938 -15.475559 -17.001539 2.009668 0.000000 0.000000 0.000000 
-0.046854 1.219314 0.014957 1.378230 -4.352581 -8.085800 7.205027 0.350263 5.290285 0.231685 0.680874 -17.100418 -2.022401 17.522009 92.724684 0.000000 0.000000 0.000000 -7.614554 0.171869 -2.298083 -3.008380 0.038051 -4.167971 -0.753387 -16.493362 99.655571 0.000000 0.000000 0.000000 -3.154181 -0.137877 7.010544 3.953820 0.846903 -41.182118 3.512158 2.144547 45.914856 -3.425455 3.730813 -68.152029 0.000000 0.000000 0.000000 30.315222 1.784581 -1.709232 6.981828 8.299593 2.227614 8.723755 21.042954 0.827011 0.000000 0.000000 0.000000 -43.910047 -5.066554 -1.349885 4.493663 -1.391519 -0.651956 -11.305804 -15.589508 1.362475 0.000000 0.000000 0.000000 
